<svg width="519" height="519" viewBox="0 0 519 519" fill="none" xmlns="http://www.w3.org/2000/svg">
<g filter="url(#filter0_d_223_4)">
<path d="M258 0C258.99 0 259.98 0 261 0C262.805 1.87891 262.805 1.87891 264.875 4.5625C268.635 9.32044 272.505 13.9375 276.5 18.5C280.999 23.6575 285.39 28.8816 289.699 34.1992C292.88 38.0717 296.148 41.8673 299.416 45.666C304.187 51.2111 308.913 56.7928 313.632 62.3823C315.025 64.0291 316.42 65.6731 317.816 67.3164C322.049 72.3003 326.257 77.2956 330.375 82.375C334.542 87.4973 338.862 92.4742 343.2 97.4504C346.382 101.108 349.508 104.798 352.562 108.562C354.042 110.375 355.521 112.188 357 114C358.193 115.475 358.193 115.475 359.41 116.98C366.026 125.013 373.228 132.442 380.562 139.812C381.045 140.3 381.528 140.788 382.025 141.291C388.671 147.992 395.625 154.111 403 160C405.311 161.936 407.595 163.903 409.875 165.875C411.066 166.9 412.258 167.925 413.449 168.949C414.334 169.71 414.334 169.71 415.236 170.486C421.885 176.193 428.569 181.856 435.375 187.375C440.497 191.542 445.474 195.862 450.45 200.2C454.962 204.125 459.553 207.934 464.199 211.699C468.68 215.38 473.062 219.175 477.457 222.957C480.811 225.842 484.183 228.707 487.562 231.562C488.091 232.009 488.62 232.456 489.164 232.917C491.342 234.757 493.522 236.596 495.701 238.435C498.481 240.78 501.259 243.127 504.031 245.48C505.881 247.051 507.735 248.616 509.594 250.176C510.326 250.798 511.058 251.421 511.812 252.062C512.438 252.59 513.063 253.117 513.707 253.66C515 255 515 255 515 257C513.533 258.333 511.997 259.589 510.438 260.812C505.693 264.605 501.072 268.502 496.5 272.5C491.342 276.998 486.118 281.39 480.801 285.699C476.928 288.88 473.133 292.148 469.334 295.416C463.789 300.187 458.207 304.913 452.618 309.632C450.971 311.025 449.327 312.42 447.684 313.816C442.7 318.049 437.704 322.257 432.625 326.375C427.503 330.542 422.526 334.862 417.55 339.2C413.892 342.382 410.202 345.508 406.438 348.562C404.625 350.041 402.812 351.521 401 353C400.005 353.807 399.01 354.614 397.984 355.445C390.154 361.908 382.881 368.905 375.688 376.062C374.769 376.972 373.85 377.882 372.903 378.819C366.842 384.908 361.366 391.297 356 398C354.023 400.353 352.013 402.678 350 405C346.463 409.101 342.971 413.228 339.562 417.438C335.42 422.542 331.119 427.496 326.799 432.451C322.875 436.962 319.066 441.553 315.301 446.199C311.62 450.68 307.825 455.062 304.043 459.457C299.786 464.406 295.578 469.395 291.368 474.382C289.975 476.029 288.58 477.673 287.184 479.316C282.876 484.389 278.589 489.474 274.375 494.625C273.658 495.5 272.942 496.376 272.203 497.277C270.635 499.215 269.085 501.167 267.547 503.129C266.748 504.138 265.948 505.148 265.125 506.188C264.046 507.57 264.046 507.57 262.945 508.98C262.303 509.647 261.661 510.313 261 511C260.01 511 259.02 511 258 511C256.16 509.086 256.16 509.086 254.062 506.375C253.267 505.37 252.472 504.364 251.652 503.328C251.224 502.786 250.796 502.244 250.355 501.686C248.014 498.773 245.567 495.953 243.125 493.125C242.097 491.931 241.07 490.737 240.043 489.543C239.536 488.953 239.028 488.363 238.505 487.755C234.765 483.394 231.065 478.999 227.359 474.609C225.533 472.447 223.705 470.287 221.877 468.127C220.961 467.044 220.045 465.962 219.129 464.879C216.815 462.144 214.5 459.41 212.18 456.68C207.949 451.697 203.741 446.703 199.625 441.625C195.458 436.502 191.137 431.524 186.797 426.547C182.896 422.063 179.115 417.495 175.375 412.875C171.978 408.763 168.474 404.748 164.955 400.74C161.804 397.136 158.766 393.465 155.773 389.727C150.9 383.75 145.597 378.301 140.125 372.875C139.208 371.951 138.292 371.026 137.348 370.074C131.979 364.721 126.445 359.765 120.527 355.028C117.101 352.278 113.801 349.398 110.5 346.5C105.343 342.001 100.118 337.61 94.8008 333.301C90.32 329.62 85.9384 325.825 81.543 322.043C78.1886 319.158 74.8171 316.293 71.4375 313.438C70.9053 312.988 70.3731 312.538 69.8247 312.075C68.7529 311.169 67.6809 310.264 66.6089 309.359C64.447 307.533 62.2868 305.705 60.1267 303.877C59.0443 302.961 57.9618 302.045 56.8792 301.129C54.1436 298.815 51.41 296.5 48.6797 294.18C43.6969 289.949 38.703 285.741 33.625 281.625C29.1247 277.967 24.7427 274.189 20.375 270.375C15.0533 265.729 9.6677 261.224 4 257C7.44734 248.708 17.229 242.944 24.0234 237.441C27.3478 234.715 30.616 231.929 33.875 229.125C42.3052 221.874 50.7378 214.629 59.375 207.625C64.4973 203.458 69.4742 199.138 74.4504 194.8C78.9622 190.875 83.5533 187.066 88.1992 183.301C92.0717 180.12 95.8673 176.852 99.666 173.584C103.617 170.184 107.582 166.803 111.562 163.438C112.102 162.979 112.641 162.521 113.197 162.048C115.74 159.891 118.294 157.764 120.895 155.676C128.615 149.392 135.7 142.516 142.75 135.5C143.485 134.773 143.485 134.773 144.234 134.031C150.955 127.367 157.092 120.394 163 113C164.977 110.647 166.987 108.322 169 106C172.556 101.876 176.068 97.7279 179.5 93.5C183.434 88.6532 187.486 83.9172 191.561 79.1892C194.572 75.6876 197.531 72.1521 200.438 68.5625C204.539 63.5115 208.786 58.5987 213.058 53.6921C217.979 48.0376 222.828 42.3254 227.657 36.5928C229.476 34.4356 231.299 32.2819 233.122 30.1284C234.037 29.047 234.952 27.9653 235.867 26.8833C238.202 24.1206 240.543 21.3618 242.891 18.6094C243.844 17.4897 244.797 16.3699 245.75 15.25C246.208 14.7129 246.667 14.1757 247.139 13.6223C250.457 9.70882 253.57 5.67853 256.562 1.51172C257.037 1.01285 257.511 0.513984 258 0Z" fill="#A53336"/>
</g>
<g filter="url(#filter1_d_223_4)">
<path d="M314.336 129.473C320.5 134.319 324.369 140.407 325.441 148.215C325.823 158.769 322.404 165.866 316 174C315.67 174 315.34 174 315 174C314.853 172.901 314.706 171.801 314.555 170.668C313.201 161.427 311.424 153.817 306 146C305.536 145.325 305.072 144.649 304.594 143.953C300.909 139.163 296.381 136.605 291 134C290.01 133.505 290.01 133.505 289 133C279.345 131.862 272.005 133.446 264 139C256.809 145.179 252.593 152.206 251.625 161.664C250.41 187.387 265.555 211.347 278.484 232.518C295.223 259.929 295.223 259.929 302.812 272.688C303.19 273.315 303.568 273.942 303.957 274.588C311 286.512 311 286.512 311 291C311.66 291 312.32 291 313 291C313.106 290.394 313.212 289.788 313.321 289.164C314.487 282.889 316.201 277.015 318.312 271C320.544 264.48 322.651 257.968 324.438 251.313C326.518 243.571 328.824 235.909 331.188 228.25C331.533 227.13 331.878 226.011 332.234 224.857C334.775 216.655 334.775 216.655 336.09 212.828C337.043 209.865 337.332 207.418 337.375 204.313C337.403 203.381 337.432 202.449 337.461 201.488C337.206 198.956 337.206 198.956 335.555 197.305C331.78 195.377 327.887 194.643 323.75 193.813C322.91 193.635 322.069 193.458 321.203 193.276C319.137 192.841 317.069 192.419 315 192C315 190.02 315 188.04 315 186C335.46 186 355.92 186 377 186C377 187.98 377 189.96 377 192C376.154 192.219 375.309 192.438 374.438 192.664C362.876 195.858 362.876 195.858 354.694 204.153C351.774 210.104 349.401 216.077 347.32 222.367C346.99 223.344 346.66 224.321 346.32 225.328C345.248 228.508 344.185 231.691 343.125 234.875C341.622 239.371 340.116 243.865 338.609 248.359C338.039 250.064 338.039 250.064 337.457 251.803C334.903 259.409 332.24 266.969 329.516 274.516C328.469 277.451 327.424 280.387 326.381 283.323C325.719 285.166 325.047 287.006 324.365 288.841C319.968 300.679 318.335 309.432 320 322C321.352 343.208 318.821 361.262 304.566 377.828C294.17 388.874 281.553 396.967 266.199 398.34C256.145 398.593 246.994 397.541 239 391C232.984 385.211 228.894 378.48 228.5 370C228.856 362.075 233.083 354.138 238 348C238.66 348 239.32 348 240 348C240.098 348.811 240.196 349.622 240.297 350.457C241.998 363.053 244.897 374.622 255.312 382.82C257.502 384.312 259.693 385.699 262 387C262.643 387.375 263.286 387.75 263.949 388.137C269.58 390.507 276.433 389.51 282.062 387.563C290.909 383.548 297.184 377.05 301.16 368.262C305.908 355.476 302.129 340.072 297 328C296.733 327.36 296.467 326.719 296.192 326.059C291.093 314.025 284.43 302.911 277.667 291.754C276.062 289.103 274.47 286.446 272.883 283.785C268.895 277.107 264.896 270.437 260.805 263.82C260.292 262.989 259.779 262.158 259.25 261.302C258.271 259.718 257.288 258.136 256.3 256.558C253 251.221 253 251.221 253 249C252.34 249 251.68 249 251 249C250.631 250.221 250.263 251.442 249.883 252.699C247.778 259.005 244.812 264.861 241.875 270.813C237.834 279.093 233.858 287.388 230.125 295.813C227.203 302.4 224.111 308.842 220.836 315.262C218.006 320.92 215.488 326.728 212.932 332.514C212.565 333.341 212.198 334.168 211.82 335.02C211.493 335.763 211.166 336.507 210.829 337.273C210 339 210 339 209 340C207.147 340.072 205.292 340.084 203.438 340.063C202.426 340.054 201.414 340.045 200.371 340.035C199.197 340.018 199.197 340.018 198 340C195.663 333.929 193.602 327.806 191.637 321.606C191.322 320.619 191.008 319.632 190.684 318.615C189.683 315.473 188.685 312.33 187.688 309.188C187.029 307.12 186.371 305.053 185.713 302.986C183.805 296.992 181.901 290.997 180 285C179.736 284.169 179.473 283.337 179.201 282.481C176.212 273.052 173.252 263.615 170.309 254.172C169.992 253.157 169.676 252.142 169.35 251.096C168.051 246.929 166.753 242.763 165.456 238.596C163.592 232.604 161.719 226.616 159.829 220.632C159.299 218.948 158.771 217.264 158.248 215.578C157.594 213.476 156.928 211.378 156.258 209.281C155.902 208.153 155.547 207.024 155.18 205.861C153.238 201.153 150.509 198.306 146 196C142.827 194.953 139.719 194.156 136.441 193.508C134 193 134 193 133 192C133 190.02 133 188.04 133 186C155.77 186 178.54 186 202 186C202 187.98 202 189.96 202 192C200.337 192.346 200.337 192.346 198.641 192.699C197.177 193.028 195.713 193.357 194.25 193.688C193.52 193.837 192.791 193.985 192.039 194.139C188.516 194.955 186.267 195.796 183.359 198.02C181.234 202.68 182.612 206.218 184 211C184.269 211.945 184.538 212.89 184.815 213.864C185.775 217.11 186.788 220.336 187.812 223.563C188.196 224.785 188.58 226.007 188.976 227.266C190.065 230.734 191.162 234.199 192.26 237.663C193.046 240.146 193.83 242.629 194.613 245.112C196.323 250.534 198.035 255.955 199.75 261.375C200.024 262.241 200.298 263.107 200.58 264C201.38 266.529 202.182 269.058 202.984 271.586C203.239 272.389 203.493 273.192 203.756 274.02C204.969 277.832 206.206 281.634 207.502 285.419C207.737 286.107 207.971 286.794 208.213 287.503C208.845 289.343 209.485 291.181 210.126 293.018C211 296 211 296 211 300C211.66 300 212.32 300 213 300C213.257 299.167 213.514 298.334 213.78 297.476C215.123 293.65 216.775 290.033 218.527 286.383C219.045 285.293 219.045 285.293 219.574 284.182C220.311 282.63 221.05 281.079 221.791 279.529C222.946 277.108 224.095 274.684 225.242 272.26C231.171 259.726 231.171 259.726 233.892 254.046C235.482 250.724 237.055 247.394 238.625 244.063C239.092 243.1 239.558 242.138 240.039 241.147C240.451 240.265 240.864 239.382 241.289 238.473C241.647 237.723 242.005 236.972 242.374 236.2C243.527 232.151 241.869 228.361 240.66 224.453C240.402 223.608 240.143 222.762 239.877 221.891C239.339 220.146 238.8 218.401 238.26 216.656C232.133 196.588 231.746 176.961 240.75 157.625C248.79 142.754 261.69 130.885 277.688 125.063C289.682 121.972 303.751 122.8 314.336 129.473Z" fill="#FDFBFA"/>
</g>
<defs>
<filter id="filter0_d_223_4" x="0" y="0" width="519" height="519" filterUnits="userSpaceOnUse" color-interpolation-filters="sRGB">
<feFlood flood-opacity="0" result="BackgroundImageFix"/>
<feColorMatrix in="SourceAlpha" type="matrix" values="0 0 0 0 0 0 0 0 0 0 0 0 0 0 0 0 0 0 127 0" result="hardAlpha"/>
<feOffset dy="4"/>
<feGaussianBlur stdDeviation="2"/>
<feComposite in2="hardAlpha" operator="out"/>
<feColorMatrix type="matrix" values="0 0 0 0 0 0 0 0 0 0 0 0 0 0 0 0 0 0 0.25 0"/>
<feBlend mode="normal" in2="BackgroundImageFix" result="effect1_dropShadow_223_4"/>
<feBlend mode="normal" in="SourceGraphic" in2="effect1_dropShadow_223_4" result="shape"/>
</filter>
<filter id="filter1_d_223_4" x="129" y="123.338" width="252" height="283.035" filterUnits="userSpaceOnUse" color-interpolation-filters="sRGB">
<feFlood flood-opacity="0" result="BackgroundImageFix"/>
<feColorMatrix in="SourceAlpha" type="matrix" values="0 0 0 0 0 0 0 0 0 0 0 0 0 0 0 0 0 0 127 0" result="hardAlpha"/>
<feOffset dy="4"/>
<feGaussianBlur stdDeviation="2"/>
<feComposite in2="hardAlpha" operator="out"/>
<feColorMatrix type="matrix" values="0 0 0 0 0 0 0 0 0 0 0 0 0 0 0 0 0 0 0.25 0"/>
<feBlend mode="normal" in2="BackgroundImageFix" result="effect1_dropShadow_223_4"/>
<feBlend mode="normal" in="SourceGraphic" in2="effect1_dropShadow_223_4" result="shape"/>
</filter>
</defs>
</svg>
